# xmcd
#
# Track frame offsets: 
#        150
#        20863
#        47322
#        72922
#        93364
#        117209
#        139367
#        166450
#        187475
#        210951
#        226134
#        248288
#        262262
#        291905
#
# Disc length: 4142 seconds
#
# Revision: 1
# Processed by: cddbd v1.5.2PL0 Copyright (c) Steve Scherf et al.
# Submitted via: ExactAudioCopyFreeDBPlugin 1.0
#
DISCID=cc102c0e
DTITLE=Various Artist - Big Apple Blues
DYEAR=2002
DGENRE=Blues
TTITLE0=The Fins - New York
TTITLE1=Roxy Perry - Men Like You
TTITLE2=Moose and The Bulletproof Blues Band - I Didn´t Know
TTITLE3=Backbone Slip - Bright Lights, Big City
TTITLE4=Dona Oxford - Red White And Blues
TTITLE5=Dave Keyes - I Got Da Funk
TTITLE6=Ernie Williams and The Wildcats - Love of Gold
TTITLE7=Built For Comfort Blues Band - Give Me One More Time
TTITLE8=Barbecue Bob and The Spareribs - Take A Fool´s Advice
TTITLE9=Barbecue Bob and The Spareribs - Backslider
TTITLE10=Mark The Harper - Friendly Neighborhood Bluesman
TTITLE11=Roxy Perry - Tailgate Swing
TTITLE12=Paul Whistler and Nora Michaels - Love, Life and Money
TTITLE13=Backbone Slip - Avenue Breakdown
EXTD=YEAR: 2002
EXTT0=
EXTT1=
EXTT2=
EXTT3=
EXTT4=
EXTT5=
EXTT6=
EXTT7=
EXTT8=
EXTT9=
EXTT10=
EXTT11=
EXTT12=
EXTT13=
PLAYORDER=
